# AST/ASF file generated using VICON BodyLanguage
# -----------------------------------------------
:version 1.10
:name VICON
:units
  mass 1.0
  length 0.45
  angle deg
:documentation
   .ast/.asf automatically generated from VICON data using
   VICON BodyBuilder and BodyLanguage model FoxedUp or BRILLIANT.MOD
:root
   order TX TY TZ RX RY RZ
   axis XYZ
   position 0 0 0  
   orientation 0 0 0 
:bonedata
  begin
     id 1 
     name lhipjoint
     direction 0.714689 -0.624256 0.315473 
     length 2.45343 
     axis 0 0 0  XYZ
  end
  begin
     id 2 
     name lfemur
     direction 0.34202 -0.939693 0  
     length 6.59069  
     axis 0 0 20  XYZ
    dof rx ry rz
    limits (-160.0 20.0)
           (-70.0 70.0)
           (-60.0 70.0)
  end
  begin
     id 3 
     name ltibia
     direction 0.34202 -0.939693 0   
     length 6.73476   
     axis 0 0 20   XYZ
    dof rx
    limits (-10.0 170.0)
  end
  begin
     id 4 
     name lfoot
     direction 0.0718085 -0.197292 0.977711   
     length 1.52607   
     axis -90 7.62852e-016 20   XYZ
    dof rx rz
    limits (-45.0 90.0)
           (-70.0 20.0)
  end
  begin
     id 5 
     name ltoes
     direction 1.53553e-011 -4.22024e-011 1   
     length 0.777832   
     axis -90 7.62852e-016 20   XYZ
    dof rx
    limits (-90.0 20.0)
  end
  begin
     id 6 
     name rhipjoint
     direction -0.727419 -0.612432 0.309497   
     length 2.50079  
     axis 0 0 0  XYZ 
  end
  begin
     id 7 
     name rfemur
     direction -0.34202 -0.939693 0   
     length 6.51665   
     axis 0 0 -20   XYZ
    dof rx ry rz
    limits (-160.0 20.0)
           (-70.0 70.0)
           (-70.0 60.0)
  end
  begin
     id 8 
     name rtibia
     direction -0.34202 -0.939693 0   
     length 6.48919   
     axis 0 0 -20   XYZ
    dof rx
    limits (-10.0 170.0)
 end
 begin
     id 9 
     name rfoot
     direction -0.112205 -0.308282 0.944655   
     length 1.68717  
     axis -90 -7.62852e-016 -20   XYZ
    dof rx rz
    limits (-45.0 90.0)
           (-20.0 70.0)
  end
  begin
     id 10 
     name rtoes
     direction -1.53583e-011 -4.21993e-011 1   
     length 0.846859   
     axis -90 -7.62852e-016 -20   XYZ
    dof rx
    limits (-90.0 20.0)
  end
  begin
     id 11 
     name lowerback
     direction -0.00119603 0.996364 -0.0851956   
     length 1.67242   
     axis 0 0 0   XYZ
    dof rx ry rz
    limits (-20.0 45.0)
           (-30.0 30.0)
           (-30.0 30.0)
  end
  begin
     id 12 
     name upperback
     direction -0.00531001 0.998318 0.0577248   
     length 1.64819   
     axis 0 0 0   XYZ
    dof rx ry rz
    limits (-20.0 45.0)
           (-30.0 30.0)
           (-30.0 30.0)
  end
  begin
     id 13 
     name thorax
     direction -0.00653676 0.995132 0.0983291   
     length 1.67429   
     axis 0 0 0   XYZ
    dof rx ry rz
    limits (-20.0 45.0)
           (-30.0 30.0)
           (-30.0 30.0)
  end
  begin
     id 14 
     name lowerneck
     direction 0.0141424 0.999886 0.00525412   
     length 1.59623   
     axis 0 0 0   XYZ
    dof rx ry rz
    limits (-20.0 45.0)
           (-30.0 30.0)
           (-30.0 30.0)
  end
  begin
     id 15 
     name upperneck
     direction -0.0640064 0.987178 -0.146232   
     length 1.59576   
     axis 0 0 0   XYZ
    dof rx ry rz
    limits (-20.0 45.0)
           (-30.0 30.0)
           (-30.0 30.0)
  end
  begin
     id 16
     name head
     direction -0.0222942 0.998496 -0.0500859  
     length 1.60959  
     axis 0 0 0   XYZ
    dof rx ry rz
    limits (-20.0 45.0)
           (-30.0 30.0)
           (-30.0 30.0)
  end
  begin
     id 17 
     name lclavicle
     direction 0.908549 0.392612 0.142806  
     length 2.80649  
     axis 0 0 0   XYZ
    dof ry rz
    limits (-20.0 10.0)
           (0.0 20.0)
  end
  begin
     id 18 
     name lhumerus
     direction 1 -4.48968e-011 1.08832e-028   
     length 4.2884   
     axis -180 -30 -90   XYZ
    dof rx ry rz
    limits (-60.0 90.0)
           (-90.0 90.0)
           (-90.0 90.0)
  end
  begin
     id 19
     name lradius
     direction 1 -4.48952e-011 -3.02642e-028   
     length 3.06552   
     axis -180 -30 -90   XYZ
    dof rx
    limits (-10.0 170.0)
  end
  begin
     id 20
     name lwrist
     direction 1 -4.49014e-011 1.58672e-027   
     length 1.53276   
     axis -1.65735e-015 90 90   XYZ
    dof ry
    limits (-180.0 0.0)
 end
  begin
     id 21 
     name lhand
     direction 1 -4.48928e-011 3.17344e-027   
     length 0.753045   
     axis -2.02492e-015 90 90   XYZ
    dof rx rz
    limits (-90.0 90.0)
           (-45.0 45.0)
  end
  begin
     id 22 
     name lfingers
     direction 1 -4.48958e-011 6.34687e-027   
     length 0.607124   
     axis -4.04985e-015 90 90   XYZ
    dof rx
    limits (0.0 90.0)
  end
  begin
     id 23
     name lthumb
     direction 0.707107 -6.34905e-011 0.707107   
     length 0.871712   
     axis -90 45 2.85299e-015   XYZ
    dof rx rz
    limits (-45.0 45.0)
           (-45.0 45.0)
  end
  begin
     id 24 
     name rclavicle
     direction -0.885098 0.45949 0.0739604   
     length 2.9478  
     axis 0 0 0   XYZ 
    dof ry rz
    limits (-10.0 20.0)
           (-20.0 0.0)
  end
  begin
     id 25 
     name rhumerus
     direction -1 -4.4898e-011 -2.61739e-027  
     length 4.52172   
     axis -180 30 90   XYZ
    dof rx ry rz
    limits (-90.0 60.0)
           (-90.0 90.0)
           (-90.0 90.0)
  end
  begin
     id 26 
     name rradius
     direction -1 -4.48945e-011 9.02552e-028   
     length 2.8914   
     axis -180 30 90   XYZ
    dof rx
    limits (-10.0 170.0)
  end
  begin
     id 27 
     name rwrist
     direction -1 -4.49018e-011 1.58672e-027   
     length 1.4457   
     axis -1.65735e-015 -90 -90   XYZ
    dof ry
    limits (-180.0 0.0)
  end
  begin
     id 28
     name rhand
     direction -1 -4.48825e-011 3.17344e-027   
     length 0.680541   
     axis -2.02492e-015 -90 -90   XYZ
    dof rx rz
    limits (-90.0 90.0)
           (-45.0 45.0)
  end
  begin
     id 29
     name rfingers
     direction -1 -4.49067e-011 6.34687e-027   
     length 0.54867   
     axis -4.04985e-015 -90 -90   XYZ
    dof rx
    limits (0.0 90.0)
  end
  begin
     id 30
     name rthumb
     direction -0.707107 -6.34833e-011 0.707107   
     length 0.787783   
     axis -90 -45 -2.85299e-015   XYZ
    dof rx rz
    limits (-45.0 45.0)
           (-45.0 45.0)
  end
:hierarchy
  begin
    root lhipjoint rhipjoint lowerback
    lhipjoint lfemur
    lfemur ltibia
    ltibia lfoot
    lfoot ltoes
    rhipjoint rfemur
    rfemur rtibia
    rtibia rfoot
    rfoot rtoes
    lowerback upperback
    upperback thorax
    thorax lowerneck lclavicle rclavicle
    lowerneck upperneck
    upperneck head
    lclavicle lhumerus
    lhumerus lradius
    lradius lwrist
    lwrist lhand lthumb
    lhand lfingers
    rclavicle rhumerus
    rhumerus rradius
    rradius rwrist
    rwrist rhand rthumb
    rhand rfingers
  end

#!OML:ASF E:\emotionWalksFemale\Project 1\Capture day 1\Session 1\Female1.ASF
:FULLY-SPECIFIED
:DEGREES
106
root 8.90084 15.449 23.4466 -178.59 0.281229 -179.49
lowerback 12.3211 0.69156 0.788587
upperback -3.08667 1.05023 -0.0724363
thorax -10.2544 0.452259 -0.74375
lowerneck -7.39182 -1.99556 -5.80371
upperneck 6.59963 -2.49646 5.08428
head 3.66524 -1.19053 2.61527
rclavicle -7.12228e-015 -2.16178e-015
rhumerus -39.437 8.77504 -69.8225
rradius 44.3656
rwrist 24.7552
rhand -11.2419 -50.256
rfingers 7.12502
rthumb 14.7874 -79.7085
lclavicle -7.12228e-015 -2.16178e-015
lhumerus -30.5026 0.224368 59.051
lradius 40.0553
lwrist -3.93077
lhand 3.44558 -37.7237
lfingers 7.12502
lthumb 28.8863 -9.94041
rfemur -7.23364 12.3389 25.6089
rtibia 23.7308
rfoot -19.2635 -27.1503
rtoes 9.28813
lfemur -9.78365 -17.8663 -21.8484
ltibia 26.3793
lfoot -22.4938 13.9553
ltoes -33.9022
107
root 8.90757 15.4509 23.4663 -178.36 0.333991 -179.569
lowerback 12.2816 0.720569 0.662222
upperback -2.86966 1.06568 -0.0659546
thorax -9.99326 0.469413 -0.665525
lowerneck -7.35174 -2.01171 -5.80278
upperneck 6.1032 -2.49904 5.09764
head 3.48434 -1.18698 2.61402
rclavicle 6.43837e-015 2.98177e-016
rhumerus -38.8966 9.30611 -68.9483
rradius 44.4786
rwrist 24.6366
rhand -11.5747 -50.1263
rfingers 7.12502
rthumb 14.4668 -79.602
lclavicle 6.43837e-015 2.98177e-016
lhumerus -29.9649 0.0978687 58.1246
lradius 40.0646
lwrist -3.61263
lhand 2.74123 -38.3673
lfingers 7.12502
lthumb 28.2133 -10.471
rfemur -7.65363 12.1599 25.4596
rtibia 23.8263
rfoot -19.189 -26.9461
rtoes 9.181
lfemur -10.2575 -17.7262 -21.7901
ltibia 26.5956
lfoot -22.5781 13.7451
ltoes -33.2389
108
root 8.91334 15.4517 23.4856 -178.152 0.437924 -179.604
lowerback 11.762 0.755383 0.674359
upperback -2.32945 1.10158 -0.117307
thorax -9.0955 0.492053 -0.719722
lowerneck -7.48931 -2.06608 -5.72047
upperneck 5.40162 -2.54549 5.10661
head 3.26872 -1.20082 2.59183
rclavicle 3.76526e-015 -1.56543e-015
rhumerus -37.7758 9.54376 -68.0543
rradius 44.4243
rwrist 24.5669
rhand -11.4191 -49.7608
rfingers 7.12502
rthumb 14.6167 -79.2257
lclavicle 3.76526e-015 -1.56543e-015
lhumerus -29.0367 0.0540396 57.1059
lradius 40.0397
lwrist -3.13706
lhand 2.14109 -39.0183
lfingers 7.12502
lthumb 27.6395 -11.0287
rfemur -8.10023 11.9831 25.3547
rtibia 23.9891
rfoot -18.9935 -26.7502
rtoes 8.02953
lfemur -10.6598 -17.4718 -21.6973
ltibia 26.7426
lfoot -22.6545 13.4894
ltoes -33.0841
109
root 8.91804 15.4523 23.5042 -177.921 0.508179 -179.587
lowerback 11.8444 0.793775 0.725428
upperback -2.16962 1.15828 -0.149908
thorax -8.96655 0.517404 -0.793967
lowerneck -7.37108 -2.11347 -5.58121
upperneck 4.81824 -2.60544 5.04759
head 3.04389 -1.22877 2.53625
rclavicle -7.43268e-015 3.2054e-015
rhumerus -37.2981 10.0285 -67.3289
rradius 44.3992
rwrist 23.9161
rhand -11.3303 -49.8333
rfingers 7.12502
rthumb 14.7023 -79.2919
lclavicle -7.43268e-015 3.2054e-015
lhumerus -28.7257 -0.507641 56.137
lradius 40.2454
lwrist -2.30469
lhand 1.66155 -39.1826
lfingers 7.12502
lthumb 27.1809 -11.1204
rfemur -8.54203 11.7857 25.2906
rtibia 24.1664
rfoot -19.0754 -26.355
rtoes 8.24829
lfemur -11.0771 -17.2475 -21.5467
ltibia 26.8668
lfoot -22.6774 13.3169
ltoes -32.7588
110
root 8.92256 15.4518 23.5242 -177.685 0.494275 -179.596
lowerback 12.2055 0.818067 0.706489
upperback -2.17936 1.19148 -0.145019
thorax -9.18658 0.532773 -0.79147
lowerneck -7.11205 -2.12087 -5.62402
upperneck 4.32125 -2.61488 5.13142
head 2.82884 -1.23363 2.56783
rclavicle -1.89467e-016 -3.72721e-016
rhumerus -37.1787 10.6445 -66.6821
rradius 44.4494
rwrist 23.3563
rhand -11.6309 -49.8976
rfingers 7.12502
rthumb 14.4127 -79.3772
lclavicle -1.89467e-016 -3.72721e-016
lhumerus -28.6577 -1.03594 55.302
lradius 40.4581
lwrist -1.54507
lhand 1.36274 -39.2422
lfingers 7.12502
lthumb 26.895 -11.1356
rfemur -8.97659 11.5592 25.2131
rtibia 24.2818
rfoot -18.9579 -26.1187
rtoes 8.67593
lfemur -11.5327 -17.1234 -21.4233
ltibia 27.0398
lfoot -22.5885 13.2645
ltoes -33.0085
111
root 8.9295 15.4515 23.5443 -177.485 0.457699 -179.581
lowerback 12.8111 0.809729 0.651987
upperback -2.26584 1.18258 -0.083019
thorax -9.63584 0.529486 -0.704855
lowerneck -6.93694 -2.12094 -5.74647
upperneck 3.98983 -2.60327 5.15695
head 2.68639 -1.23038 2.59715
rclavicle 1.08648e-014 -1.98785e-016
rhumerus -37.243 11.3885 -66.0628
rradius 44.6041
rwrist 23.2592
rhand -11.8687 -49.7094
rfingers 7.12502
rthumb 14.1835 -79.2052
lclavicle 1.08648e-014 -1.98785e-016
lhumerus -28.7523 -1.32277 54.5518
lradius 40.5294
lwrist -1.11811
lhand 0.850118 -39.6417
lfingers 7.12502
lthumb 26.4044 -11.4605
rfemur -9.34842 11.3791 25.1923
rtibia 24.3396
rfoot -18.7834 -26.0007
rtoes 8.88058
lfemur -11.9869 -16.964 -21.2668
ltibia 27.2607
lfoot -22.4576 13.1803
ltoes -33.58
112
root 8.93735 15.4546 23.5643 -177.209 0.462177 -179.465
lowerback 12.8437 0.810457 0.758535
upperback -2.03109 1.20613 -0.0428883
thorax -9.39569 0.539807 -0.724881
lowerneck -6.8566 -2.16484 -5.78208
upperneck 3.28435 -2.64801 5.20731
head 2.43878 -1.2525 2.61306
rclavicle 8.56677e-015 1.16786e-015
rhumerus -36.8924 12.0188 -65.4641
rradius 44.6633
rwrist 22.9292
rhand -11.7968 -49.7566
rfingers 7.12502
rthumb 14.2529 -79.2475
lclavicle 8.56677e-015 1.16786e-015
lhumerus -28.3959 -1.41203 53.8356
lradius 40.5408
lwrist -0.723809
lhand 0.0378561 -39.8967
lfingers 7.12502
lthumb 25.6266 -11.6011
rfemur -9.76316 11.2998 25.2646
rtibia 24.378
rfoot -18.8657 -25.7686
rtoes 9.464
lfemur -12.5528 -16.7159 -20.9674
ltibia 27.4911
lfoot -22.4213 12.9484
ltoes -33.3696
113
root 8.94383 15.4581 23.5858 -176.896 0.495898 -179.348
lowerback 13.096 0.839884 0.83121
upperback -1.95154 1.26558 0.00499572
thorax -9.45347 0.566423 -0.73092
lowerneck -6.59733 -2.20263 -5.91868
upperneck 2.56002 -2.69594 5.42322
head 2.16095 -1.27713 2.70503
rclavicle -1.88737e-014 -2.77522e-015
rhumerus -36.7765 12.8256 -64.9368
rradius 44.6643
rwrist 22.4496
rhand -11.7909 -49.6735
rfingers 7.12502
rthumb 14.2585 -79.164
lclavicle -1.88737e-014 -2.77522e-015
lhumerus -28.2851 -1.78325 53.1892
lradius 40.6595
lwrist -0.209735
lhand -0.763515 -39.9226
lfingers 7.12502
lthumb 24.8589 -11.5188
rfemur -10.235 11.2525 25.3224
rtibia 24.4053
rfoot -18.7832 -25.5991
rtoes 9.07421
lfemur -13.1606 -16.4275 -20.6694
ltibia 27.7154
lfoot -22.388 12.6326
ltoes -33.1492
114
root 8.95017 15.4601 23.6081 -176.62 0.476242 -179.313
lowerback 13.608 0.829926 0.810985
upperback -1.97064 1.25984 0.0497555
thorax -9.77308 0.563792 -0.680265
lowerneck -6.46656 -2.16964 -6.09193
upperneck 2.04408 -2.64432 5.62697
head 1.97202 -1.25208 2.80605
rclavicle 2.35436e-015 4.8081e-015
rhumerus -36.8039 13.846 -64.5121
rradius 44.6914
rwrist 22.225
rhand -11.9816 -49.3243
rfingers 7.12502
rthumb 14.0748 -78.8276
lclavicle 2.35436e-015 4.8081e-015
lhumerus -28.4722 -2.23555 52.451
lradius 40.7968
lwrist 0.171708
lhand -1.40987 -40.542
lfingers 7.12502
lthumb 24.2393 -12.0541
rfemur -10.6881 11.1635 25.302
rtibia 24.4495
rfoot -18.6163 -25.5159
rtoes 8.42807
lfemur -13.7166 -16.1563 -20.4742
ltibia 27.9223
lfoot -22.2508 12.3364
ltoes -33.6436
115
root 8.95721 15.4631 23.6297 -176.285 0.38104 -179.308
lowerback 13.4537 0.802762 0.858214
upperback -1.62569 1.23301 0.0406196
thorax -9.3044 0.55578 -0.704603
lowerneck -6.57374 -2.13103 -6.17074
upperneck 1.31589 -2.57711 5.73701
head 1.75171 -1.22063 2.85645
rclavicle -6.89845e-015 1.08089e-015
rhumerus -36.4035 14.7335 -64.068
rradius 44.7233
rwrist 22.0385
rhand -12.1345 -49.353
rfingers 7.12502
rthumb 13.9273 -78.8666
lclavicle -6.89845e-015 1.08089e-015
lhumerus -28.1453 -2.28713 51.7234
lradius 40.7655
lwrist 0.392948
lhand -1.99793 -41.4779
lfingers 7.12502
lthumb 23.6754 -12.9158
rfemur -11.2142 11.0266 25.2483
rtibia 24.564
rfoot -18.6103 -25.433
rtoes 8.74506
lfemur -14.3324 -15.9587 -20.2913
ltibia 28.0912
lfoot -22.1681 12.0546
ltoes -33.7212
116
root 8.96371 15.4661 23.6524 -175.901 0.269748 -179.332
lowerback 15.2981 0.876682 0.629934
upperback -2.5251 1.31858 0.168021
thorax -11.3838 0.590502 -0.501151
lowerneck -6.2575 -2.17724 -6.23867
upperneck 1.6639 -2.64136 5.55676
head 1.81004 -1.25618 2.80793
rclavicle -5.77718e-016 -4.72114e-015
rhumerus -37.9286 16.4098 -63.8339
rradius 44.8493
rwrist 22.0179
rhand -12.1453 -49.6266
rfingers 7.12502
rthumb 13.917 -79.1408
lclavicle -5.77718e-016 -4.72114e-015
lhumerus -29.4385 -3.5818 51.4653
lradius 41.0275
lwrist 0.774529
lhand -2.63403 -41.7563
lfingers 7.12502
lthumb 23.0652 -13.1167
rfemur -11.8379 10.7954 25.1512
rtibia 24.75
rfoot -18.6207 -25.2726
rtoes 9.15534
lfemur -14.9995 -15.7869 -20.1337
ltibia 28.2264
lfoot -22.1167 11.839
ltoes -33.4942
